<mxfile host="app.diagrams.net" agent="Mozilla/5.0 (Windows NT 10.0; Win64; x64) AppleWebKit/537.36 (KHTML, like Gecko) Chrome/129.0.0.0 Safari/537.36" version="24.7.17">
  <diagram id="MM_nezGowdB7d3N1kBj2" name="Page-1">
    <mxGraphModel dx="997" dy="667" grid="1" gridSize="10" guides="1" tooltips="1" connect="1" arrows="1" fold="1" page="1" pageScale="1" pageWidth="850" pageHeight="1100" math="0" shadow="0">
      <root>
        <mxCell id="0" />
        <mxCell id="1" parent="0" />
        <mxCell id="ouyr_VhFAxmZTuxJOW2w-2" value="" style="html=1;dashed=0;whiteSpace=wrap;shape=mxgraph.dfd.externalEntity" vertex="1" parent="1">
          <mxGeometry x="110" y="600" width="100" height="100" as="geometry" />
        </mxCell>
        <mxCell id="ouyr_VhFAxmZTuxJOW2w-3" value="admin" style="autosize=1;part=1;resizable=0;strokeColor=inherit;fillColor=inherit;gradientColor=inherit;" vertex="1" parent="ouyr_VhFAxmZTuxJOW2w-2">
          <mxGeometry width="60" height="30" relative="1" as="geometry">
            <mxPoint x="-5" y="10" as="offset" />
          </mxGeometry>
        </mxCell>
        <mxCell id="ouyr_VhFAxmZTuxJOW2w-4" value="supplierDetailsTable" style="html=1;dashed=0;whiteSpace=wrap;shape=mxgraph.dfd.dataStoreID;align=left;spacingLeft=3;points=[[0,0],[0.5,0],[1,0],[0,0.5],[1,0.5],[0,1],[0.5,1],[1,1]];" vertex="1" parent="1">
          <mxGeometry x="700" y="630" width="120" height="50" as="geometry" />
        </mxCell>
        <mxCell id="ouyr_VhFAxmZTuxJOW2w-5" value="" style="endArrow=classic;html=1;rounded=0;" edge="1" parent="1">
          <mxGeometry width="50" height="50" relative="1" as="geometry">
            <mxPoint x="590" y="650" as="sourcePoint" />
            <mxPoint x="700" y="650" as="targetPoint" />
          </mxGeometry>
        </mxCell>
        <mxCell id="ouyr_VhFAxmZTuxJOW2w-11" value="add&amp;nbsp;&lt;div&gt;&amp;nbsp; &amp;nbsp; &amp;nbsp; &amp;nbsp; &amp;nbsp; &amp;nbsp; &amp;nbsp; supplier details&lt;/div&gt;" style="edgeLabel;html=1;align=center;verticalAlign=middle;resizable=0;points=[];" vertex="1" connectable="0" parent="ouyr_VhFAxmZTuxJOW2w-5">
          <mxGeometry x="-0.4" relative="1" as="geometry">
            <mxPoint x="17" y="20" as="offset" />
          </mxGeometry>
        </mxCell>
        <mxCell id="ouyr_VhFAxmZTuxJOW2w-6" value="" style="endArrow=classic;html=1;rounded=0;entryX=0;entryY=0.5;entryDx=0;entryDy=0;" edge="1" parent="1">
          <mxGeometry width="50" height="50" relative="1" as="geometry">
            <mxPoint x="210" y="649.5" as="sourcePoint" />
            <mxPoint x="390" y="650" as="targetPoint" />
          </mxGeometry>
        </mxCell>
        <mxCell id="ouyr_VhFAxmZTuxJOW2w-7" value="supplier details" style="text;html=1;align=center;verticalAlign=middle;resizable=0;points=[];autosize=1;strokeColor=none;fillColor=none;" vertex="1" parent="1">
          <mxGeometry x="230" y="618" width="100" height="30" as="geometry" />
        </mxCell>
        <mxCell id="ouyr_VhFAxmZTuxJOW2w-9" value="1.0" style="swimlane;whiteSpace=wrap;html=1;" vertex="1" parent="1">
          <mxGeometry x="390" y="533" width="200" height="200" as="geometry" />
        </mxCell>
        <mxCell id="ouyr_VhFAxmZTuxJOW2w-10" value="process supplier details" style="text;html=1;align=center;verticalAlign=middle;resizable=0;points=[];autosize=1;strokeColor=none;fillColor=none;" vertex="1" parent="ouyr_VhFAxmZTuxJOW2w-9">
          <mxGeometry x="25" y="77" width="150" height="30" as="geometry" />
        </mxCell>
        <mxCell id="ouyr_VhFAxmZTuxJOW2w-12" value="" style="endArrow=classic;html=1;rounded=0;" edge="1" parent="1">
          <mxGeometry width="50" height="50" relative="1" as="geometry">
            <mxPoint x="390" y="670" as="sourcePoint" />
            <mxPoint x="210" y="670" as="targetPoint" />
          </mxGeometry>
        </mxCell>
        <mxCell id="ouyr_VhFAxmZTuxJOW2w-15" value="feedback" style="edgeLabel;html=1;align=center;verticalAlign=middle;resizable=0;points=[];" vertex="1" connectable="0" parent="ouyr_VhFAxmZTuxJOW2w-12">
          <mxGeometry x="0.2778" y="-2" relative="1" as="geometry">
            <mxPoint as="offset" />
          </mxGeometry>
        </mxCell>
        <mxCell id="ouyr_VhFAxmZTuxJOW2w-13" value="" style="endArrow=classic;html=1;rounded=0;" edge="1" parent="1">
          <mxGeometry width="50" height="50" relative="1" as="geometry">
            <mxPoint x="700" y="640" as="sourcePoint" />
            <mxPoint x="590" y="640" as="targetPoint" />
          </mxGeometry>
        </mxCell>
        <mxCell id="ouyr_VhFAxmZTuxJOW2w-14" value="feedback" style="edgeLabel;html=1;align=center;verticalAlign=middle;resizable=0;points=[];" vertex="1" connectable="0" parent="ouyr_VhFAxmZTuxJOW2w-13">
          <mxGeometry x="0.0727" y="-1" relative="1" as="geometry">
            <mxPoint as="offset" />
          </mxGeometry>
        </mxCell>
      </root>
    </mxGraphModel>
  </diagram>
</mxfile>
